name analog
datacolumns 19
datarows 71
range 0.3145 0.34950000000000003
endheader
time	ground_force_vx	ground_force_vy	ground_force_vz	ground_force_px	ground_force_py	ground_force_pz	l_ground_force_vx	l_ground_force_vy	l_ground_force_vz	l_ground_force_px	l_ground_force_py	l_ground_force_pz	ground_torque_x	ground_torque_y	ground_torque_z	l_ground_torque_x	l_ground_torque_y	l_ground_torque_z
0.3145	-0.0	-0.0	-0.0	-17.309280395507812	-12.12051486968994	-839.5521850585938	-0.0	-0.0	-0.0	-0.0	-0.0	-0.0	-0.0	-0.0	-0.0	-0.0	-0.0	-0.0
0.315	-0.0	-0.0	-0.0	-17.0332088470459	-11.503814697265623	-841.6040649414062	-0.0	-0.0	-0.0	-0.0	-0.0	-0.0	-0.0	-0.0	-0.0	-0.0	-0.0	-0.0
0.3155	-0.0	-0.0	-0.0	-15.622285842895508	-11.046371459960938	-840.1829223632812	-0.0	-0.0	-0.0	-0.0	-0.0	-0.0	-0.0	-0.0	-0.0	-0.0	-0.0	-0.0
0.316	-0.0	-0.0	-0.0	-15.707781791687012	-9.17931079864502	-836.7098999023438	-0.0	-0.0	-0.0	-0.0	-0.0	-0.0	-0.0	-0.0	-0.0	-0.0	-0.0	-0.0
0.3165	-0.0	-0.0	-0.0	-15.437844276428224	-7.567241191864014	-837.3458251953125	-0.0	-0.0	-0.0	-0.0	-0.0	-0.0	-0.0	-0.0	-0.0	-0.0	-0.0	-0.0
0.317	-0.0	-0.0	-0.0	-14.71653175354004	-6.1435980796813965	-831.3771362304688	-0.0	-0.0	-0.0	-0.0	-0.0	-0.0	-0.0	-0.0	-0.0	-0.0	-0.0	-0.0
0.3175	-0.0	-0.0	-0.0	-13.736361503601074	-5.0835161209106445	-829.9810180664062	-0.0	-0.0	-0.0	-0.0	-0.0	-0.0	-0.0	-0.0	-0.0	-0.0	-0.0	-0.0
0.318	-0.0	-0.0	-0.0	-12.841362953186035	-4.628845691680908	-829.231201171875	-0.0	-0.0	-0.0	-0.0	-0.0	-0.0	-0.0	-0.0	-0.0	-0.0	-0.0	-0.0
0.3185	-0.0	-0.0	-0.0	-11.32682991027832	-4.2859978675842285	-827.5044555664062	-0.0	-0.0	-0.0	-0.0	-0.0	-0.0	-0.0	-0.0	-0.0	-0.0	-0.0	-0.0
0.319	-0.0	-0.0	-0.0	-8.114439010620117	-5.5223708152771	-829.9360961914062	-0.0	-0.0	-0.0	-0.0	-0.0	-0.0	-0.0	-0.0	-0.0	-0.0	-0.0	-0.0
0.3195	-0.0	-0.0	-0.0	-4.986883640289307	-5.523415565490723	-826.8364868164062	-0.0	-0.0	-0.0	-0.0	-0.0	-0.0	-0.0	-0.0	-0.0	-0.0	-0.0	-0.0
0.32	-0.0	-0.0	-0.0	-2.6806600093841557	-5.262166500091553	-831.01513671875	-0.0	-0.0	-0.0	-0.0	-0.0	-0.0	-0.0	-0.0	-0.0	-0.0	-0.0	-0.0
0.3205	-0.0	-0.0	-0.0	-0.9796554446220398	-4.978033065795898	-828.556884765625	-0.0	-0.0	-0.0	-0.0	-0.0	-0.0	-0.0	-0.0	-0.0	-0.0	-0.0	-0.0
0.321	-0.0	-0.0	-0.0	0.3623808324337005	-2.5855722427368164	-827.1411743164062	-0.0	-0.0	-0.0	-0.0	-0.0	-0.0	-0.0	-0.0	-0.0	-0.0	-0.0	-0.0
0.3215	-0.0	-0.0	-0.0	2.414070844650269	-2.302781820297241	-826.4349365234375	-0.0	-0.0	-0.0	-0.0	-0.0	-0.0	-0.0	-0.0	-0.0	-0.0	-0.0	-0.0
0.322	-0.0	-0.0	-0.0	4.285758018493652	0.1841014176607132	-828.2011108398438	-0.0	-0.0	-0.0	-0.0	-0.0	-0.0	-0.0	-0.0	-0.0	-0.0	-0.0	-0.0
0.3225	-0.0	-0.0	-0.0	5.715699672698975	2.2303338050842285	-827.1310424804688	-0.0	-0.0	-0.0	-0.0	-0.0	-0.0	-0.0	-0.0	-0.0	-0.0	-0.0	-0.0
0.323	-0.0	-0.0	-0.0	7.226727485656738	3.8380112648010254	-823.9955444335938	-0.0	-0.0	-0.0	-0.0	-0.0	-0.0	-0.0	-0.0	-0.0	-0.0	-0.0	-0.0
0.3235	-0.0	-0.0	-0.0	6.332671642303467	5.254873275756836	-828.8956909179688	-0.0	-0.0	-0.0	-0.0	-0.0	-0.0	-0.0	-0.0	-0.0	-0.0	-0.0	-0.0
0.324	-0.0	-0.0	-0.0	4.549137592315674	4.728694438934326	-829.6172485351562	-0.0	-0.0	-0.0	-0.0	-0.0	-0.0	-0.0	-0.0	-0.0	-0.0	-0.0	-0.0
0.3245	-0.0	-0.0	-0.0	3.209848165512085	4.804398536682129	-829.979736328125	-0.0	-0.0	-0.0	-0.0	-0.0	-0.0	-0.0	-0.0	-0.0	-0.0	-0.0	-0.0
0.325	-0.0	-0.0	-0.0	2.496280670166016	3.2994370460510254	-828.5601806640625	-0.0	-0.0	-0.0	-0.0	-0.0	-0.0	-0.0	-0.0	-0.0	-0.0	-0.0	-0.0
0.3255	-0.0	-0.0	-0.0	2.9439468383789062	3.918745994567871	-830.67724609375	-0.0	-0.0	-0.0	-0.0	-0.0	-0.0	-0.0	-0.0	-0.0	-0.0	-0.0	-0.0
0.326	-0.0	-0.0	-0.0	2.591247320175171	4.369688987731934	-829.9747314453125	-0.0	-0.0	-0.0	-0.0	-0.0	-0.0	-0.0	-0.0	-0.0	-0.0	-0.0	-0.0
0.3265	-0.0	-0.0	-0.0	2.7637715339660645	5.255188465118408	-828.9202880859375	-0.0	-0.0	-0.0	-0.0	-0.0	-0.0	-0.0	-0.0	-0.0	-0.0	-0.0	-0.0
0.327	-0.0	-0.0	-0.0	1.6977976560592651	5.796271324157715	-829.9602661132812	-0.0	-0.0	-0.0	-0.0	-0.0	-0.0	-0.0	-0.0	-0.0	-0.0	-0.0	-0.0
0.3275	-0.0	-0.0	-0.0	1.8745033740997317	6.682977199554443	-826.0936279296875	-0.0	-0.0	-0.0	-0.0	-0.0	-0.0	-0.0	-0.0	-0.0	-0.0	-0.0	-0.0
0.328	-0.0	-0.0	-0.0	2.8523600101470947	6.77424955368042	-825.031005859375	-0.0	-0.0	-0.0	-0.0	-0.0	-0.0	-0.0	-0.0	-0.0	-0.0	-0.0	-0.0
0.3285	-0.0	-0.0	-0.0	2.766427755355835	6.773009300231934	-825.0235595703125	-0.0	-0.0	-0.0	-0.0	-0.0	-0.0	-0.0	-0.0	-0.0	-0.0	-0.0	-0.0
0.329	-0.0	-0.0	-0.0	3.391308307647705	6.061652183532715	-822.911376953125	-0.0	-0.0	-0.0	-0.0	-0.0	-0.0	-0.0	-0.0	-0.0	-0.0	-0.0	-0.0
0.3295	-0.0	-0.0	-0.0	4.194370746612549	5.258939743041992	-821.50439453125	-0.0	-0.0	-0.0	-0.0	-0.0	-0.0	-0.0	-0.0	-0.0	-0.0	-0.0	-0.0
0.33	-0.0	-0.0	-0.0	5.352630615234375	4.723289966583252	-822.5552368164062	-0.0	-0.0	-0.0	-0.0	-0.0	-0.0	-0.0	-0.0	-0.0	-0.0	-0.0	-0.0
0.3305	-0.0	-0.0	-0.0	5.35212516784668	3.74314022064209	-820.085205078125	-0.0	-0.0	-0.0	-0.0	-0.0	-0.0	-0.0	-0.0	-0.0	-0.0	-0.0	-0.0
0.331	-0.0	-0.0	-0.0	5.796627044677734	3.297384738922119	-818.6705322265625	-0.0	-0.0	-0.0	-0.0	-0.0	-0.0	-0.0	-0.0	-0.0	-0.0	-0.0	-0.0
0.3315	-0.0	-0.0	-0.0	3.033265352249145	2.5849974155426025	-816.9030151367188	-0.0	-0.0	-0.0	-0.0	-0.0	-0.0	-0.0	-0.0	-0.0	-0.0	-0.0	-0.0
0.332	-0.0	-0.0	-0.0	0.8917592167854309	2.4061062335968018	-816.9046020507812	-0.0	-0.0	-0.0	-0.0	-0.0	-0.0	-0.0	-0.0	-0.0	-0.0	-0.0	-0.0
0.3325	-0.0	-0.0	-0.0	0.5347886085510254	1.7827028036117554	-819.3779907226562	-0.0	-0.0	-0.0	-0.0	-0.0	-0.0	-0.0	-0.0	-0.0	-0.0	-0.0	-0.0
0.333	-0.0	-0.0	-0.0	-0.0892535597085952	0.980443000793457	-823.2622680664062	-0.0	-0.0	-0.0	-0.0	-0.0	-0.0	-0.0	-0.0	-0.0	-0.0	-0.0	-0.0
0.3335	-0.0	-0.0	-0.0	-0.1783908009529113	-1.0691721439361572	-825.02880859375	-0.0	-0.0	-0.0	-0.0	-0.0	-0.0	-0.0	-0.0	-0.0	-0.0	-0.0	-0.0
0.334	-0.0	-0.0	-0.0	-0.5351248979568481	-1.8719453811645508	-831.029052734375	-0.0	-0.0	-0.0	-0.0	-0.0	-0.0	-0.0	-0.0	-0.0	-0.0	-0.0	-0.0
0.3345	-0.0	-0.0	-0.0	-2.051479816436768	-3.208784818649292	-831.738037109375	-0.0	-0.0	-0.0	-0.0	-0.0	-0.0	-0.0	-0.0	-0.0	-0.0	-0.0	-0.0
0.335	-0.0	-0.0	-0.0	-2.5874927043914795	-4.099610805511475	-831.3820190429688	-0.0	-0.0	-0.0	-0.0	-0.0	-0.0	-0.0	-0.0	-0.0	-0.0	-0.0	-0.0
0.3355	-0.0	-0.0	-0.0	-4.459348201751709	-3.83311128616333	-827.8617553710938	-0.0	-0.0	-0.0	-0.0	-0.0	-0.0	-0.0	-0.0	-0.0	-0.0	-0.0	-0.0
0.336	-0.0	-0.0	-0.0	-5.350733757019043	-3.7438559532165527	-829.2634887695312	-0.0	-0.0	-0.0	-0.0	-0.0	-0.0	-0.0	-0.0	-0.0	-0.0	-0.0	-0.0
0.3365	-0.0	-0.0	-0.0	-7.224679946899414	-3.5631611347198486	-825.7437744140625	-0.0	-0.0	-0.0	-0.0	-0.0	-0.0	-0.0	-0.0	-0.0	-0.0	-0.0	-0.0
0.337	-0.0	-0.0	-0.0	-8.206831932067871	-3.3869552612304688	-828.5496215820312	-0.0	-0.0	-0.0	-0.0	-0.0	-0.0	-0.0	-0.0	-0.0	-0.0	-0.0	-0.0
0.3375	-0.0	-0.0	-0.0	-8.117578506469727	-4.009136199951172	-827.5006103515625	-0.0	-0.0	-0.0	-0.0	-0.0	-0.0	-0.0	-0.0	-0.0	-0.0	-0.0	-0.0
0.338	-0.0	-0.0	-0.0	-7.49597692489624	-3.567835569381714	-825.728271484375	-0.0	-0.0	-0.0	-0.0	-0.0	-0.0	-0.0	-0.0	-0.0	-0.0	-0.0	-0.0
0.3385	-0.0	-0.0	-0.0	-6.603044033050537	-4.723911285400391	-823.2725830078125	-0.0	-0.0	-0.0	-0.0	-0.0	-0.0	-0.0	-0.0	-0.0	-0.0	-0.0	-0.0
0.339	-0.0	-0.0	-0.0	-6.155525207519531	-5.077376365661621	-825.0267944335938	-0.0	-0.0	-0.0	-0.0	-0.0	-0.0	-0.0	-0.0	-0.0	-0.0	-0.0	-0.0
0.3395	-0.0	-0.0	-0.0	-6.1567888259887695	-4.814724922180176	-824.6768188476562	-0.0	-0.0	-0.0	-0.0	-0.0	-0.0	-0.0	-0.0	-0.0	-0.0	-0.0	-0.0
0.34	-0.0	-0.0	-0.0	-5.800523281097412	-5.523786544799805	-826.4301147460938	-0.0	-0.0	-0.0	-0.0	-0.0	-0.0	-0.0	-0.0	-0.0	-0.0	-0.0	-0.0
0.3405	-0.0	-0.0	-0.0	-5.262938499450684	-6.327295780181885	-823.9706420898438	-0.0	-0.0	-0.0	-0.0	-0.0	-0.0	-0.0	-0.0	-0.0	-0.0	-0.0	-0.0
0.341	-0.0	-0.0	-0.0	-4.103683471679688	-7.308172702789307	-823.27685546875	-0.0	-0.0	-0.0	-0.0	-0.0	-0.0	-0.0	-0.0	-0.0	-0.0	-0.0	-0.0
0.3415	-0.0	-0.0	-0.0	-2.9439468383789062	-8.201114654541016	-825.7280883789062	-0.0	-0.0	-0.0	-0.0	-0.0	-0.0	-0.0	-0.0	-0.0	-0.0	-0.0	-0.0
0.342	-0.0	-0.0	-0.0	-3.1193771362304688	-8.998584747314453	-822.9259033203125	-0.0	-0.0	-0.0	-0.0	-0.0	-0.0	-0.0	-0.0	-0.0	-0.0	-0.0	-0.0
0.3425	-0.0	-0.0	-0.0	-3.301408529281616	-7.763012886047363	-823.9638671875	-0.0	-0.0	-0.0	-0.0	-0.0	-0.0	-0.0	-0.0	-0.0	-0.0	-0.0	-0.0
0.343	-0.0	-0.0	-0.0	-3.927237987518311	-7.933921813964844	-822.2159423828125	-0.0	-0.0	-0.0	-0.0	-0.0	-0.0	-0.0	-0.0	-0.0	-0.0	-0.0	-0.0
0.3435	-0.0	-0.0	-0.0	-5.970130443572998	-7.220955848693848	-822.211181640625	-0.0	-0.0	-0.0	-0.0	-0.0	-0.0	-0.0	-0.0	-0.0	-0.0	-0.0	-0.0
0.34400000000000003	-0.0	-0.0	-0.0	-6.864896297454834	-6.952889442443848	-822.9007568359375	-0.0	-0.0	-0.0	-0.0	-0.0	-0.0	-0.0	-0.0	-0.0	-0.0	-0.0	-0.0
0.34450000000000003	-0.0	-0.0	-0.0	-7.1368408203125	-6.242913246154785	-825.3694458007812	-0.0	-0.0	-0.0	-0.0	-0.0	-0.0	-0.0	-0.0	-0.0	-0.0	-0.0	-0.0
0.34500000000000003	-0.0	-0.0	-0.0	-7.134451389312744	-6.418980598449707	-828.5538940429688	-0.0	-0.0	-0.0	-0.0	-0.0	-0.0	-0.0	-0.0	-0.0	-0.0	-0.0	-0.0
0.34550000000000003	-0.0	-0.0	-0.0	-6.870027542114258	-6.952171325683594	-832.4418334960938	-0.0	-0.0	-0.0	-0.0	-0.0	-0.0	-0.0	-0.0	-0.0	-0.0	-0.0	-0.0
0.34600000000000003	-0.0	-0.0	-0.0	-6.86663818359375	-7.137282371520996	-835.27392578125	-0.0	-0.0	-0.0	-0.0	-0.0	-0.0	-0.0	-0.0	-0.0	-0.0	-0.0	-0.0
0.34650000000000003	-0.0	-0.0	-0.0	-5.795995235443115	-8.368412017822266	-841.6065063476562	-0.0	-0.0	-0.0	-0.0	-0.0	-0.0	-0.0	-0.0	-0.0	-0.0	-0.0	-0.0
0.34700000000000003	-0.0	-0.0	-0.0	-5.533803939819336	-8.37917423248291	-841.6278076171875	-0.0	-0.0	-0.0	-0.0	-0.0	-0.0	-0.0	-0.0	-0.0	-0.0	-0.0	-0.0
0.34750000000000003	-0.0	-0.0	-0.0	-5.357412338256836	-9.001214981079102	-844.7874755859375	-0.0	-0.0	-0.0	-0.0	-0.0	-0.0	-0.0	-0.0	-0.0	-0.0	-0.0	-0.0
0.34800000000000003	-0.0	-0.0	-0.0	-5.618271827697754	-8.560495376586914	-839.9131469726562	-0.0	-0.0	-0.0	-0.0	-0.0	-0.0	-0.0	-0.0	-0.0	-0.0	-0.0	-0.0
0.34850000000000003	-0.0	-0.0	-0.0	-4.99882173538208	-8.111876487731934	-841.2266235351562	-0.0	-0.0	-0.0	-0.0	-0.0	-0.0	-0.0	-0.0	-0.0	-0.0	-0.0	-0.0
0.34900000000000003	-0.0	-0.0	-0.0	-5.527902603149414	-7.7522478103637695	-835.64453125	-0.0	-0.0	-0.0	-0.0	-0.0	-0.0	-0.0	-0.0	-0.0	-0.0	-0.0	-0.0
0.34950000000000003	-0.0	-0.0	-0.0	-5.17529821395874	-6.953258991241455	-832.07470703125	-0.0	-0.0	-0.0	-0.0	-0.0	-0.0	-0.0	-0.0	-0.0	-0.0	-0.0	-0.0
